<svg width="35" height="29" viewBox="0 0 35 29" fill="none" xmlns="http://www.w3.org/2000/svg">
<path d="M34.1564 4.18195C32.9312 4.71047 31.5979 5.09084 30.2245 5.23898C31.6504 4.3919 32.7181 3.05365 33.2274 1.47531C31.8895 2.27124 30.4237 2.82936 28.8952 3.12492C28.2564 2.44196 27.4837 1.89788 26.6254 1.52659C25.7671 1.1553 24.8415 0.964748 23.9064 0.966813C20.1227 0.966813 17.0797 4.03381 17.0797 7.79748C17.0797 8.32599 17.1438 8.85451 17.2479 9.363C11.5823 9.06672 6.5294 6.36007 3.17012 2.21603C2.55802 3.26151 2.23726 4.45192 2.24121 5.66339C2.24121 8.03371 3.44639 10.1237 5.28418 11.3529C4.20114 11.3103 3.14346 11.0126 2.19717 10.4841V10.5682C2.19717 13.8874 4.54346 16.6381 7.67051 17.2707C7.08337 17.4232 6.47938 17.5013 5.87276 17.5029C5.42832 17.5029 5.00791 17.4589 4.5835 17.3988C5.44834 20.1055 7.9668 22.0714 10.9657 22.1355C8.61944 23.9733 5.68057 25.0543 2.48945 25.0543C1.9169 25.0543 1.38838 25.0343 0.839844 24.9702C3.8668 26.9121 7.4583 28.0332 11.3261 28.0332C23.8823 28.0332 30.753 17.6311 30.753 8.60226C30.753 8.30597 30.753 8.00968 30.733 7.71339C32.0623 6.74045 33.2275 5.53527 34.1564 4.18195Z" fill="white"/>
</svg>
